<svg width="178" height="179" viewBox="0 0 178 179" fill="none" xmlns="http://www.w3.org/2000/svg">
<path d="M19.3096 121.907C18.77 121.907 18.2582 121.816 17.7743 121.631C17.2941 121.443 16.9177 121.202 16.647 120.908L16.8843 120.512C17.1402 120.786 17.4869 121.01 17.9226 121.184C18.3565 121.353 18.8145 121.437 19.2947 121.437C19.9919 121.437 20.5185 121.307 20.8745 121.042C21.2305 120.773 21.4085 120.427 21.4085 119.998C21.4085 119.67 21.3139 119.409 21.1266 119.215C20.9375 119.017 20.7039 118.864 20.4221 118.76C20.1439 118.655 19.7694 118.547 19.2947 118.431C18.7607 118.297 18.3306 118.169 18.0042 118.044C17.6816 117.921 17.4072 117.727 17.181 117.462C16.9585 117.199 16.8472 116.847 16.8472 116.403C16.8472 116.045 16.9399 115.72 17.1291 115.426C17.3163 115.127 17.6037 114.893 17.9894 114.717C18.3751 114.538 18.8571 114.449 19.4356 114.449C19.8361 114.449 20.2311 114.508 20.6223 114.628C21.0117 114.747 21.351 114.909 21.6384 115.113L21.4381 115.545C21.1452 115.342 20.8244 115.187 20.474 115.083C20.1217 114.978 19.7768 114.926 19.4356 114.926C18.757 114.926 18.2434 115.064 17.893 115.336C17.5462 115.61 17.3738 115.963 17.3738 116.395C17.3738 116.724 17.4665 116.988 17.6556 117.186C17.8429 117.38 18.0747 117.529 18.3528 117.633C18.6346 117.738 19.0147 117.85 19.495 117.969C20.0327 118.103 20.461 118.234 20.7781 118.357C21.0988 118.482 21.3732 118.674 21.6013 118.931C21.8275 119.185 21.9425 119.532 21.9425 119.968C21.9425 120.322 21.8461 120.647 21.6532 120.945C21.4604 121.24 21.1656 121.473 20.7706 121.646C20.3738 121.821 19.8881 121.907 19.3096 121.907Z" fill="white"/>
<path d="M23.5743 116.373H24.1009V121.855H23.5743V116.373ZM23.8413 115.038C23.7226 115.038 23.6207 114.999 23.5372 114.918C23.4519 114.84 23.4111 114.739 23.4111 114.62C23.4111 114.501 23.4519 114.4 23.5372 114.314C23.6207 114.23 23.7226 114.188 23.8413 114.188C23.96 114.188 24.0582 114.23 24.138 114.314C24.2214 114.394 24.264 114.491 24.264 114.605C24.264 114.725 24.2214 114.827 24.138 114.911C24.0582 114.997 23.96 115.038 23.8413 115.038Z" fill="white"/>
<path d="M27.6781 121.899C27.2368 121.899 26.8196 121.832 26.4246 121.698C26.0279 121.564 25.7201 121.396 25.4976 121.191L25.7349 120.773C25.9574 120.963 26.2429 121.122 26.5952 121.251C26.9457 121.376 27.3146 121.437 27.7003 121.437C28.2491 121.437 28.6533 121.346 28.9166 121.161C29.1781 120.978 29.3097 120.727 29.3097 120.408C29.3097 120.175 29.2374 119.994 29.0946 119.863C28.95 119.729 28.7757 119.63 28.5681 119.565C28.3604 119.502 28.0711 119.435 27.7003 119.364C27.2701 119.289 26.9216 119.207 26.6546 119.118C26.3913 119.024 26.1669 118.877 25.9796 118.677C25.7905 118.474 25.6978 118.193 25.6978 117.835C25.6978 117.398 25.8758 117.037 26.2318 116.753C26.5915 116.47 27.1014 116.328 27.7596 116.328C28.1101 116.328 28.4568 116.378 28.798 116.477C29.1391 116.578 29.4154 116.707 29.6286 116.865L29.3913 117.29C29.1688 117.126 28.9129 117.003 28.6274 116.917C28.3456 116.833 28.0526 116.791 27.7522 116.791C27.2423 116.791 26.8585 116.886 26.6026 117.074C26.3449 117.264 26.217 117.512 26.217 117.82C26.217 118.07 26.2874 118.264 26.4321 118.402C26.5804 118.536 26.7602 118.636 26.9735 118.7C27.1848 118.765 27.4815 118.838 27.8635 118.916C28.2881 118.991 28.6311 119.073 28.8944 119.162C29.1558 119.248 29.3765 119.39 29.5545 119.587C29.7362 119.781 29.8289 120.05 29.8289 120.393C29.8289 120.852 29.6398 121.217 29.2652 121.489C28.8888 121.763 28.3604 121.899 27.6781 121.899Z" fill="white"/>
<path d="M33.9946 121.512C33.8611 121.637 33.6943 121.734 33.4977 121.803C33.2993 121.866 33.0917 121.9 32.8747 121.9C32.4038 121.9 32.0385 121.769 31.7771 121.504C31.5193 121.241 31.3914 120.876 31.3914 120.408V116.828H30.3901V116.373H31.3914V115.18H31.918V116.373H33.6461V116.828H31.918V120.356C31.918 120.71 32.0014 120.98 32.1701 121.169C32.3426 121.353 32.5947 121.445 32.9266 121.445C33.2678 121.445 33.5496 121.344 33.7721 121.139L33.9946 121.512Z" fill="white"/>
<path d="M40.0472 119.237H35.3599C35.3747 119.666 35.4804 120.046 35.6788 120.378C35.8809 120.712 36.1553 120.971 36.5021 121.154C36.8469 121.333 37.2363 121.422 37.6665 121.422C38.0225 121.422 38.3507 121.359 38.6529 121.228C38.9533 121.1 39.2054 120.908 39.4094 120.654L39.7135 121.004C39.4761 121.294 39.1758 121.515 38.8161 121.668C38.4601 121.823 38.0744 121.899 37.6591 121.899C37.1139 121.899 36.63 121.78 36.2054 121.541C35.7789 121.303 35.4452 120.975 35.2041 120.557C34.9668 120.136 34.8481 119.655 34.8481 119.118C34.8481 118.586 34.9612 118.109 35.1893 117.686C35.4155 117.259 35.727 116.925 36.1238 116.686C36.5187 116.447 36.9638 116.328 37.4588 116.328C37.952 116.328 38.3952 116.447 38.7864 116.686C39.1813 116.921 39.4928 117.249 39.7209 117.671C39.9471 118.088 40.0621 118.564 40.0621 119.095L40.0472 119.237ZM37.4588 116.791C37.0769 116.791 36.7338 116.878 36.4279 117.052C36.1201 117.221 35.8735 117.462 35.6862 117.775C35.5027 118.088 35.397 118.439 35.3673 118.827H39.5503C39.5244 118.439 39.4187 118.092 39.2314 117.782C39.0423 117.475 38.7957 117.234 38.4897 117.059C38.1819 116.88 37.8389 116.791 37.4588 116.791Z" fill="white"/>
<path d="M48.4586 116.328C49.1354 116.328 49.6675 116.529 50.0532 116.932C50.4389 117.331 50.6317 117.906 50.6317 118.655V121.855H50.1125V118.692C50.1125 118.077 49.9605 117.609 49.6601 117.29C49.3634 116.968 48.9444 116.805 48.4067 116.805C47.7985 116.805 47.3127 116.999 46.953 117.387C46.5915 117.771 46.4116 118.288 46.4116 118.939V121.855H45.8924V118.692C45.8924 118.077 45.7404 117.609 45.44 117.29C45.1434 116.968 44.728 116.805 44.194 116.805C43.5803 116.805 43.0927 116.999 42.7329 117.387C42.3769 117.771 42.1989 118.288 42.1989 118.939V121.855H41.6724V116.373H42.1767V117.551C42.3547 117.163 42.6217 116.863 42.9777 116.649C43.3374 116.436 43.7657 116.328 44.2608 116.328C44.754 116.328 45.1749 116.444 45.5216 116.671C45.8665 116.895 46.1112 117.223 46.2559 117.656C46.4376 117.249 46.7231 116.925 47.1088 116.686C47.4944 116.447 47.9431 116.328 48.4586 116.328Z" fill="white"/>
<path d="M54.6169 116.328C55.2937 116.328 55.8129 116.503 56.1744 116.85C56.5341 117.199 56.7158 117.708 56.7158 118.379V121.855H56.2115V120.878C56.0372 121.202 55.7832 121.452 55.4476 121.631C55.1157 121.81 54.717 121.899 54.2535 121.899C53.6453 121.899 53.1651 121.756 52.8147 121.467C52.4624 121.18 52.2881 120.801 52.2881 120.333C52.2881 119.876 52.4475 119.505 52.7702 119.222C53.0965 118.939 53.6157 118.797 54.3277 118.797H56.1967V118.357C56.1967 117.846 56.0576 117.458 55.7813 117.193C55.5032 116.925 55.1009 116.791 54.5724 116.791C54.2109 116.791 53.8641 116.856 53.5341 116.984C53.2022 117.109 52.9222 117.275 52.696 117.484L52.4364 117.111C52.7071 116.863 53.0335 116.671 53.4154 116.537C53.8011 116.399 54.2016 116.328 54.6169 116.328ZM54.3277 121.467C54.7764 121.467 55.1602 121.362 55.4773 121.154C55.7925 120.941 56.0335 120.635 56.1967 120.236V119.207H54.3351C53.8011 119.207 53.4117 119.308 53.1707 119.505C52.9278 119.699 52.8073 119.968 52.8073 120.311C52.8073 120.669 52.937 120.952 53.2003 121.161C53.4673 121.366 53.8419 121.467 54.3277 121.467Z" fill="white"/>
<path d="M66.3955 114.061V121.855H65.8837V120.565C65.6649 120.994 65.3609 121.324 64.9715 121.557C64.5803 121.786 64.1371 121.9 63.6439 121.9C63.134 121.9 62.6742 121.78 62.2644 121.542C61.8528 121.303 61.532 120.975 61.3002 120.557C61.0666 120.136 60.9517 119.655 60.9517 119.118C60.9517 118.577 61.0666 118.094 61.3002 117.671C61.532 117.249 61.8528 116.921 62.2644 116.686C62.6742 116.448 63.134 116.328 63.6439 116.328C64.1334 116.328 64.571 116.446 64.9567 116.679C65.3423 116.908 65.6464 117.229 65.8689 117.641V114.061H66.3955ZM63.6736 121.422C64.0926 121.422 64.469 121.325 64.8009 121.132C65.1309 120.934 65.3905 120.66 65.5797 120.311C65.7725 119.964 65.8689 119.565 65.8689 119.118C65.8689 118.667 65.7725 118.266 65.5797 117.917C65.3905 117.57 65.1309 117.298 64.8009 117.104C64.469 116.906 64.0926 116.806 63.6736 116.806C63.2582 116.806 62.8837 116.906 62.5537 117.104C62.2218 117.298 61.9603 117.57 61.7675 117.917C61.5784 118.266 61.4857 118.667 61.4857 119.118C61.4857 119.565 61.5784 119.964 61.7675 120.311C61.9603 120.66 62.2218 120.934 62.5537 121.132C62.8837 121.325 63.2582 121.422 63.6736 121.422Z" fill="white"/>
<path d="M73.1957 119.237H68.5083C68.5232 119.666 68.6289 120.046 68.8272 120.378C69.0294 120.712 69.3038 120.971 69.6505 121.154C69.9954 121.333 70.3848 121.422 70.8149 121.422C71.1709 121.422 71.4991 121.359 71.8013 121.228C72.1017 121.1 72.3539 120.908 72.5578 120.654L72.8619 121.004C72.6246 121.294 72.3242 121.515 71.9645 121.668C71.6085 121.823 71.2228 121.899 70.8075 121.899C70.2624 121.899 69.7784 121.78 69.3538 121.541C68.9274 121.303 68.5936 120.975 68.3526 120.557C68.1152 120.136 67.9966 119.655 67.9966 119.118C67.9966 118.586 68.1097 118.109 68.3377 117.686C68.564 117.259 68.8755 116.925 69.2722 116.686C69.6672 116.447 70.1122 116.328 70.6073 116.328C71.1005 116.328 71.5436 116.447 71.9348 116.686C72.3298 116.921 72.6413 117.249 72.8693 117.671C73.0955 118.088 73.2105 118.564 73.2105 119.095L73.1957 119.237ZM70.6073 116.791C70.2253 116.791 69.8823 116.878 69.5763 117.052C69.2685 117.221 69.0219 117.462 68.8347 117.775C68.6511 118.088 68.5454 118.439 68.5157 118.827H72.6988C72.6728 118.439 72.5671 118.092 72.3798 117.782C72.1907 117.475 71.9441 117.234 71.6382 117.059C71.3304 116.88 70.9874 116.791 70.6073 116.791Z" fill="white"/>
<path d="M82.1907 119.789H77.9558L77.0213 121.855H76.4502L79.8099 114.501H80.3439L83.7111 121.855H83.1326L82.1907 119.789ZM81.9979 119.334L80.0769 115.09L78.1634 119.334H81.9979Z" fill="white"/>
<path d="M89.2374 116.373L86.7751 121.855H86.2411L83.7861 116.373H84.3424L86.5155 121.281L88.7034 116.373H89.2374Z" fill="white"/>
<path d="M92.2117 116.328C92.8884 116.328 93.4076 116.503 93.7692 116.85C94.1289 117.199 94.3106 117.708 94.3106 118.379V121.855H93.8062V120.878C93.632 121.202 93.3779 121.452 93.0423 121.631C92.7104 121.81 92.3118 121.899 91.8482 121.899C91.2401 121.899 90.7598 121.756 90.4094 121.467C90.0571 121.18 89.8828 120.801 89.8828 120.333C89.8828 119.876 90.0423 119.505 90.3649 119.222C90.6912 118.939 91.2104 118.797 91.9224 118.797H93.7914V118.357C93.7914 117.846 93.6524 117.458 93.3761 117.193C93.098 116.925 92.6956 116.791 92.1672 116.791C91.8056 116.791 91.4589 116.856 91.1288 116.984C90.7969 117.109 90.5169 117.275 90.2907 117.484L90.0311 117.111C90.3019 116.863 90.6282 116.671 91.0102 116.537C91.3958 116.399 91.7963 116.328 92.2117 116.328ZM91.9224 121.467C92.3711 121.467 92.7549 121.362 93.072 121.154C93.3872 120.941 93.6282 120.635 93.7914 120.236V119.207H91.9298C91.3958 119.207 91.0064 119.308 90.7654 119.505C90.5225 119.699 90.402 119.968 90.402 120.311C90.402 120.669 90.5318 120.952 90.7951 121.161C91.0621 121.366 91.4366 121.467 91.9224 121.467Z" fill="white"/>
<path d="M96.457 114.061H96.9836V121.855H96.457V114.061Z" fill="white"/>
<path d="M99.1812 116.373H99.7078V121.855H99.1812V116.373ZM99.4482 115.038C99.3296 115.038 99.2276 114.999 99.1441 114.918C99.0589 114.84 99.0181 114.739 99.0181 114.62C99.0181 114.501 99.0589 114.4 99.1441 114.314C99.2276 114.23 99.3296 114.188 99.4482 114.188C99.5669 114.188 99.6652 114.23 99.7449 114.314C99.8283 114.394 99.871 114.491 99.871 114.605C99.871 114.725 99.8283 114.827 99.7449 114.911C99.6652 114.997 99.5669 115.038 99.4482 115.038Z" fill="white"/>
<path d="M103.745 116.328C104.422 116.328 104.941 116.503 105.302 116.85C105.662 117.199 105.844 117.708 105.844 118.379V121.855H105.339V120.878C105.165 121.202 104.911 121.452 104.576 121.631C104.244 121.81 103.845 121.899 103.381 121.899C102.773 121.899 102.293 121.756 101.943 121.467C101.59 121.18 101.416 120.801 101.416 120.333C101.416 119.876 101.575 119.505 101.898 119.222C102.224 118.939 102.744 118.797 103.456 118.797H105.325V118.357C105.325 117.846 105.186 117.458 104.909 117.193C104.631 116.925 104.229 116.791 103.7 116.791C103.339 116.791 102.992 116.856 102.662 116.984C102.33 117.109 102.05 117.275 101.824 117.484L101.564 117.111C101.835 116.863 102.161 116.671 102.543 116.537C102.929 116.399 103.33 116.328 103.745 116.328ZM103.456 121.467C103.904 121.467 104.288 121.362 104.605 121.154C104.92 120.941 105.161 120.635 105.325 120.236V119.207H103.463C102.929 119.207 102.54 119.308 102.299 119.505C102.056 119.699 101.935 119.968 101.935 120.311C101.935 120.669 102.065 120.952 102.328 121.161C102.595 121.366 102.97 121.467 103.456 121.467Z" fill="white"/>
<path d="M110.156 121.9C109.626 121.9 109.151 121.78 108.732 121.542C108.317 121.303 107.99 120.973 107.753 120.55C107.516 120.128 107.397 119.651 107.397 119.118C107.397 118.577 107.516 118.094 107.753 117.671C107.99 117.249 108.317 116.921 108.732 116.686C109.151 116.447 109.626 116.328 110.156 116.328C110.59 116.328 110.987 116.416 111.343 116.589C111.702 116.759 111.995 117.011 112.218 117.342L111.832 117.626C111.639 117.354 111.396 117.149 111.105 117.014C110.818 116.876 110.501 116.805 110.156 116.805C109.73 116.805 109.348 116.902 109.006 117.096C108.669 117.287 108.406 117.557 108.213 117.909C108.024 118.258 107.931 118.661 107.931 119.118C107.931 119.571 108.024 119.973 108.213 120.326C108.406 120.674 108.669 120.945 109.006 121.139C109.348 121.329 109.73 121.422 110.156 121.422C110.501 121.422 110.818 121.355 111.105 121.221C111.396 121.083 111.639 120.876 111.832 120.602L112.218 120.885C111.995 121.219 111.702 121.473 111.343 121.646C110.987 121.816 110.59 121.9 110.156 121.9ZM109.755 124.137C109.429 124.137 109.155 124.048 108.932 123.869L109.081 123.578C109.268 123.721 109.492 123.794 109.755 123.794C109.967 123.794 110.136 123.744 110.26 123.645C110.382 123.55 110.445 123.415 110.445 123.242C110.445 123.078 110.386 122.946 110.267 122.847C110.149 122.752 109.978 122.705 109.755 122.705H109.548L109.793 121.795H110.134L109.971 122.422C110.247 122.44 110.462 122.526 110.616 122.675C110.773 122.828 110.853 123.026 110.853 123.264C110.853 123.527 110.749 123.738 110.542 123.898C110.338 124.057 110.076 124.137 109.755 124.137Z" fill="white"/>
<path d="M115.622 116.328C116.299 116.328 116.818 116.504 117.18 116.85C117.539 117.199 117.721 117.708 117.721 118.379V121.855H117.217V120.878C117.043 121.202 116.789 121.452 116.453 121.631C116.121 121.81 115.722 121.9 115.259 121.9C114.651 121.9 114.17 121.756 113.82 121.467C113.468 121.18 113.293 120.801 113.293 120.333C113.293 119.877 113.453 119.506 113.776 119.222C114.102 118.939 114.621 118.797 115.333 118.797H117.202V118.357C117.202 117.846 117.063 117.458 116.787 117.194C116.509 116.925 116.106 116.791 115.578 116.791C115.216 116.791 114.869 116.856 114.539 116.985C114.208 117.11 113.928 117.276 113.701 117.484L113.442 117.111C113.712 116.863 114.039 116.671 114.421 116.537C114.806 116.399 115.207 116.328 115.622 116.328ZM115.333 121.467C115.782 121.467 116.166 121.363 116.483 121.154C116.798 120.941 117.039 120.636 117.202 120.237V119.207H115.34C114.806 119.207 114.417 119.308 114.176 119.506C113.933 119.7 113.813 119.968 113.813 120.311C113.813 120.669 113.942 120.953 114.206 121.161C114.473 121.366 114.847 121.467 115.333 121.467ZM116.297 115.396C116.143 115.396 116.004 115.362 115.882 115.292C115.758 115.217 115.632 115.116 115.504 114.986C115.385 114.881 115.283 114.805 115.2 114.755C115.12 114.701 115.036 114.673 114.947 114.673C114.788 114.673 114.66 114.736 114.562 114.859C114.462 114.978 114.406 115.142 114.391 115.351H114.05C114.065 115.038 114.148 114.788 114.302 114.598C114.454 114.404 114.66 114.307 114.918 114.307C115.07 114.307 115.207 114.344 115.326 114.419C115.448 114.49 115.578 114.589 115.711 114.717C115.83 114.822 115.928 114.902 116.008 114.956C116.086 115.006 116.171 115.031 116.26 115.031C116.423 115.031 116.551 114.971 116.646 114.852C116.744 114.732 116.802 114.572 116.816 114.367H117.158C117.146 114.676 117.063 114.924 116.905 115.113C116.746 115.303 116.544 115.396 116.297 115.396Z" fill="white"/>
<path d="M121.996 121.899C121.481 121.899 121.017 121.78 120.602 121.541C120.19 121.303 119.868 120.973 119.63 120.55C119.393 120.128 119.274 119.651 119.274 119.118C119.274 118.586 119.393 118.109 119.63 117.686C119.868 117.259 120.19 116.925 120.602 116.686C121.017 116.447 121.481 116.328 121.996 116.328C122.515 116.328 122.979 116.447 123.391 116.686C123.806 116.925 124.132 117.259 124.37 117.686C124.607 118.109 124.726 118.586 124.726 119.118C124.726 119.651 124.607 120.128 124.37 120.55C124.132 120.973 123.806 121.303 123.391 121.541C122.979 121.78 122.515 121.899 121.996 121.899ZM121.996 121.422C122.415 121.422 122.792 121.325 123.124 121.131C123.454 120.934 123.713 120.66 123.902 120.311C124.095 119.964 124.192 119.565 124.192 119.118C124.192 118.666 124.095 118.265 123.902 117.917C123.713 117.57 123.454 117.298 123.124 117.104C122.792 116.906 122.415 116.805 121.996 116.805C121.581 116.805 121.206 116.906 120.876 117.104C120.545 117.298 120.283 117.57 120.09 117.917C119.901 118.265 119.808 118.666 119.808 119.118C119.808 119.565 119.901 119.964 120.09 120.311C120.283 120.66 120.545 120.934 120.876 121.131C121.206 121.325 121.581 121.422 121.996 121.422Z" fill="white"/>
<path d="M135.029 114.501L131.773 121.855H131.239L127.976 114.501H128.562L131.521 121.161L134.473 114.501H135.029Z" fill="white"/>
<path d="M136.191 116.373H136.718V121.855H136.191V116.373ZM136.458 115.038C136.34 115.038 136.238 114.999 136.154 114.918C136.069 114.84 136.028 114.739 136.028 114.62C136.028 114.501 136.069 114.4 136.154 114.314C136.238 114.23 136.34 114.188 136.458 114.188C136.577 114.188 136.675 114.23 136.755 114.314C136.839 114.394 136.881 114.491 136.881 114.605C136.881 114.725 136.839 114.827 136.755 114.911C136.675 114.997 136.577 115.038 136.458 115.038Z" fill="white"/>
<path d="M139.42 117.574C139.587 117.171 139.846 116.863 140.199 116.649C140.555 116.436 140.987 116.328 141.497 116.328V116.843L141.37 116.835C140.766 116.835 140.295 117.027 139.954 117.41C139.613 117.788 139.442 118.318 139.442 118.998V121.855H138.916V116.373H139.42V117.574Z" fill="white"/>
<path d="M145.735 121.512C145.601 121.637 145.434 121.734 145.238 121.803C145.04 121.866 144.832 121.9 144.615 121.9C144.144 121.9 143.779 121.769 143.517 121.504C143.26 121.241 143.132 120.876 143.132 120.408V116.828H142.13V116.373H143.132V115.18H143.658V116.373H145.386V116.828H143.658V120.356C143.658 120.71 143.742 120.98 143.91 121.169C144.083 121.353 144.335 121.445 144.667 121.445C145.008 121.445 145.29 121.344 145.512 121.139L145.735 121.512Z" fill="white"/>
<path d="M151.958 116.373V121.855H151.454V120.677C151.276 121.064 151.009 121.366 150.653 121.579C150.297 121.793 149.878 121.9 149.399 121.9C148.687 121.9 148.128 121.702 147.723 121.303C147.323 120.9 147.123 120.324 147.123 119.573V116.373H147.642V119.535C147.642 120.153 147.797 120.622 148.109 120.945C148.424 121.264 148.867 121.422 149.437 121.422C150.048 121.422 150.534 121.232 150.89 120.848C151.25 120.46 151.432 119.942 151.432 119.289V116.373H151.958Z" fill="white"/>
<path d="M156.004 116.328C156.68 116.328 157.2 116.503 157.561 116.85C157.921 117.199 158.103 117.708 158.103 118.379V121.855H157.598V120.878C157.424 121.202 157.17 121.452 156.834 121.631C156.502 121.81 156.104 121.899 155.64 121.899C155.032 121.899 154.552 121.756 154.201 121.467C153.849 121.18 153.675 120.801 153.675 120.333C153.675 119.876 153.834 119.505 154.157 119.222C154.483 118.939 155.002 118.797 155.714 118.797H157.583V118.357C157.583 117.846 157.444 117.458 157.168 117.193C156.89 116.925 156.488 116.791 155.959 116.791C155.598 116.791 155.251 116.856 154.921 116.984C154.589 117.109 154.309 117.275 154.083 117.484L153.823 117.111C154.094 116.863 154.42 116.671 154.802 116.537C155.188 116.399 155.588 116.328 156.004 116.328ZM155.714 121.467C156.163 121.467 156.547 121.362 156.864 121.154C157.179 120.941 157.42 120.635 157.583 120.236V119.207H155.722C155.188 119.207 154.798 119.308 154.557 119.505C154.314 119.699 154.194 119.968 154.194 120.311C154.194 120.669 154.324 120.952 154.587 121.161C154.854 121.366 155.229 121.467 155.714 121.467Z" fill="white"/>
<path d="M160.25 114.061H160.776V121.855H160.25V114.061Z" fill="white"/>
<path d="M71.9176 74.0277H71.0813V102.718C71.0813 103.643 70.9182 104.596 69.7259 104.672H37.5858C35.9486 104.672 34.3021 104.721 32.6667 104.672C30.8162 104.616 31.1463 102.703 31.1463 101.411V73.6679C31.1463 72.0755 31.0758 70.4664 31.1463 68.8759C31.2279 67.0505 33.375 67.4383 34.6284 67.4383H65.9026V66.5974H48.1175C42.9963 66.5974 37.8714 66.5508 32.7501 66.5974C31.5931 66.6104 30.5326 67.2257 30.3397 68.4657C30.2711 68.9001 30.3101 69.3644 30.3101 69.8007V97.8236C30.3101 99.6005 30.2804 101.381 30.3101 103.158C30.3323 104.448 31.1852 105.455 32.5091 105.511C32.9059 105.528 33.3101 105.511 33.7069 105.511H69.6481C69.674 105.513 69.6981 105.513 69.7259 105.511C69.7519 105.509 69.7778 105.508 69.8057 105.504C72.2142 105.302 71.9176 102.875 71.9176 101.115V74.0277Z" fill="white"/>
<path d="M78.8409 57.3639C78.6944 58.1358 77.886 58.9954 77.4577 59.6387C76.9144 60.4553 76.373 61.2702 75.8316 62.0869C74.491 64.1043 73.1523 66.1218 71.8117 68.1393C71.5707 68.5029 71.3278 68.8702 71.0849 69.2338C70.499 70.1176 69.9149 70.9977 69.3272 71.8815C64.9866 78.4187 60.646 84.9541 56.3035 91.4932C55.0797 93.3336 53.8579 95.1758 52.6341 97.018C52.0649 97.8738 51.466 98.877 50.27 98.6215C49.3355 98.4201 48.453 97.2641 47.7688 96.6357C44.5388 93.6617 41.3089 90.6896 38.0789 87.7174C36.742 86.3209 38.4738 84.1318 40.1463 85.1257C40.8768 85.5582 41.5072 86.3209 42.1321 86.8951C42.7774 87.4899 43.4245 88.0847 44.0697 88.6796C45.9498 90.4099 47.83 92.1384 49.7082 93.8687C49.9177 94.0589 50.1254 94.2509 50.3331 94.443C50.4888 94.208 50.6446 93.9712 50.8022 93.7363C56.6224 84.969 62.4426 76.2036 68.2647 67.4382C68.4594 67.1455 68.6522 66.8546 68.8451 66.5619C70.9607 63.3753 73.0763 60.1906 75.1919 57.004C75.6981 56.2488 76.1931 55.3501 77.2222 55.352C78.2327 55.3557 79.03 56.3719 78.8409 57.3639ZM78.7185 55.035C77.632 54.1792 76.1004 54.4458 75.2308 55.4732C74.6635 56.1426 74.2222 56.9574 73.7382 57.6864C73.0948 58.6542 72.4533 59.62 71.8117 60.5877C70.4823 62.5866 69.1547 64.5873 67.8271 66.5861C67.638 66.8695 67.4507 67.1529 67.2616 67.4382C66.3624 68.7919 65.4631 70.1475 64.5638 71.5011C59.7689 78.7208 54.9741 85.9423 50.1773 93.162C47.3701 90.5796 44.5629 87.9971 41.7576 85.4147C41.103 84.8124 40.5134 84.1971 39.5956 84.061C38.917 83.9603 38.2031 84.1449 37.671 84.5849C36.5603 85.5079 36.488 87.1897 37.4244 88.2432C37.4244 88.2432 37.4244 88.2432 37.4262 88.2451C37.4466 88.2675 37.467 88.2899 37.4874 88.3104C37.4985 88.3216 37.5078 88.3309 37.5208 88.3421C40.6988 91.2657 43.8787 94.1913 47.0568 97.1168C48.1322 98.1069 49.2762 99.6582 50.9079 99.4774C52.6248 99.2853 53.4314 97.3275 54.2732 96.0614C59.044 88.8791 63.8129 81.6967 68.5836 74.5143C69.4162 73.2594 70.2487 72.0064 71.0812 70.7516C71.3612 70.332 71.6393 69.9107 71.9193 69.4911C73.1912 67.5743 74.4632 65.6594 75.7352 63.7445C76.9311 61.9451 78.3013 60.1794 79.3526 58.2962C79.9608 57.2072 79.7086 55.8181 78.7185 55.035Z" fill="white"/>
<path d="M78.8412 57.3639C78.6947 58.1359 77.8863 58.9954 77.4579 59.6387C76.9147 60.4554 76.3733 61.2702 75.8318 62.0869C74.4913 64.1044 73.1526 66.1219 71.812 68.1394C71.571 68.503 71.3281 68.8703 71.0852 69.2339C70.4993 70.1177 69.9152 70.9978 69.3274 71.8816C64.9868 78.4188 60.6462 84.9542 56.3038 91.4933C55.08 93.3336 53.8581 95.1758 52.6344 97.018C52.0651 97.8739 51.4663 98.877 50.2703 98.6216C49.3358 98.4202 48.4532 97.2642 47.769 96.6358C44.5391 93.6618 41.3091 90.6896 38.0792 87.7175C36.7423 86.3209 38.4741 84.1319 40.1466 85.1257C40.8771 85.5583 41.5075 86.3209 42.1324 86.8952C42.7776 87.49 43.4247 88.0848 44.07 88.6796C45.9501 90.41 47.8302 92.1384 49.7085 93.8688C49.918 94.0589 50.1257 94.251 50.3334 94.443C50.4891 94.2081 50.6449 93.9713 50.8025 93.7364C56.6227 84.9691 62.4429 76.2037 68.265 67.4383C68.4597 67.1455 68.6525 66.8547 68.8453 66.5619C70.9609 63.3754 73.0766 60.1906 75.1922 57.0041C75.6983 56.2489 76.1934 55.3502 77.2225 55.3521C78.233 55.3558 79.0303 56.372 78.8412 57.3639Z" fill="white"/>
<path d="M90.1399 82.8984C93.4811 82.8984 96.4181 83.7319 98.9509 85.397L96.8149 89.8645C95.643 89.1784 94.3859 88.6171 93.0472 88.1789C91.7066 87.7426 90.5774 87.5226 89.6578 87.5226C88.0205 87.5226 87.2029 88.0671 87.2029 89.156C87.2029 89.8627 87.6052 90.4295 88.4118 90.8565C89.222 91.2853 90.2066 91.6545 91.3636 91.9678C92.5243 92.2773 93.685 92.6521 94.842 93.094C96.0027 93.5322 96.9891 94.2426 97.8013 95.2271C98.6115 96.2078 99.0176 97.4478 99.0176 98.9488C99.0176 101.108 98.1758 102.794 96.4959 104.006C94.8142 105.214 92.6726 105.818 90.0731 105.818C88.2226 105.818 86.3944 105.497 84.5848 104.856C82.7751 104.214 81.1991 103.338 79.8604 102.223L82.0631 97.8226C83.1904 98.8071 84.5199 99.6163 86.0533 100.247C87.5848 100.879 88.9476 101.194 90.1399 101.194C91.054 101.194 91.766 101.03 92.2759 100.701C92.7895 100.37 93.0472 99.8811 93.0472 99.2396C93.0472 98.6187 92.7524 98.0985 92.1646 97.6809C91.5805 97.2632 90.8519 96.9537 89.9767 96.7486C89.1052 96.5453 88.1596 96.2712 87.1361 95.9281C86.1163 95.5851 85.1707 95.2121 84.2955 94.8094C83.4241 94.4029 82.6954 93.7559 82.1076 92.8702C81.5235 91.9808 81.2324 90.9143 81.2324 89.6706C81.2324 87.6177 82.0446 85.9769 83.6725 84.7481C85.3042 83.5156 87.4587 82.8984 90.1399 82.8984Z" fill="white"/>
<path d="M116.956 101.485H107.188L105.556 105.624H99.7119L109.354 83.1523H115.198L124.617 105.624H118.55L116.956 101.485ZM115.294 97.1516L112.098 88.8356L108.842 97.1516H115.294Z" fill="white"/>
<path d="M138.975 105.624H133.101L124.424 83.1523H130.483L136.201 99.6875L141.912 83.1523H147.757L138.975 105.624Z" fill="white"/>
</svg>
